<?xml version="1.0" encoding="UTF-8" standalone="no"?>
<!-- Created with Inkscape (http://www.inkscape.org/) -->

<svg
   width="357.86401"
   height="388.24399"
   viewBox="0 0 357.86401 388.24399"
   version="1.1"
   id="svg8"
   xmlns="http://www.w3.org/2000/svg"
   xmlns:svg="http://www.w3.org/2000/svg"
   xmlns:rdf="http://www.w3.org/1999/02/22-rdf-syntax-ns#"
   xmlns:cc="http://creativecommons.org/ns#"
   xmlns:dc="http://purl.org/dc/elements/1.1/">
  <defs
     id="defs2" />
  <metadata
     id="metadata5">
    <rdf:RDF>
      <cc:Work
         rdf:about="">
        <dc:format>image/svg+xml</dc:format>
        <dc:type
           rdf:resource="http://purl.org/dc/dcmitype/StillImage" />
      </cc:Work>
    </rdf:RDF>
  </metadata>
  <g
     id="layer1"
     transform="translate(0,-93.799984)">
    <g
       id="g3"
       transform="matrix(1.6617115,0,0,1.7620813,-193.10905,-318.12879)">
      <path
         id="text2-2"
         style="font-weight:bold;font-size:346.667px;line-height:1.25;font-family:Calibri;-inkscape-font-specification:Calibri;text-align:center;letter-spacing:0px;word-spacing:0px;text-anchor:middle;white-space:pre;fill:#ff0000"
         d="m 84.75684,140.34925 c -1.128472,0 -2.087027,0.33854 -2.876953,1.01562 -0.789933,0.56423 -1.467011,1.57986 -2.03125,3.04688 -0.564233,1.35416 -1.016929,3.21614 -1.355469,5.58593 -0.2257,2.36979 -0.337891,5.2474 -0.337891,8.63282 0,3.27257 0.112191,6.0931 0.337891,8.46289 0.33854,2.25694 0.791236,4.11892 1.355469,5.58593 0.564239,1.35417 1.241317,2.36979 2.03125,3.04688 0.789926,0.67709 1.748481,1.01562 2.876953,1.01562 h 54.84375 v 176.54883 c 0,1.12847 0.33854,2.1441 1.01563,3.04688 0.78993,0.90278 2.0319,1.63694 3.7246,2.20117 1.69272,0.56424 3.94836,1.01498 6.76954,1.35352 2.93403,0.33853 6.54578,0.50781 10.83398,0.50781 0.11889,0 0.20841,-0.008 0.32617,-0.008 0.11769,2.5e-4 0.2094,0.007 0.32813,0.007 4.40104,0 8.01085,-0.16889 10.83203,-0.50742 2.82119,-0.33854 5.07877,-0.78928 6.77148,-1.35352 1.80556,-0.67708 3.04752,-1.46636 3.72461,-2.36914 0.67708,-0.90278 1.01563,-1.97548 1.01563,-3.2168 v -81.58789 h 51.19922 c 1.01561,0 1.91905,-0.28343 2.70898,-0.84765 0.78993,-0.67709 1.46702,-1.74784 2.03125,-3.21485 0.67709,-1.46702 1.12783,-3.32899 1.35352,-5.58594 0.33854,-2.25694 0.50781,-5.07942 0.50781,-8.46484 0,-3.38542 -0.16927,-6.20594 -0.50781,-8.46289 -0.22569,-2.25695 -0.67643,-4.06185 -1.35352,-5.41602 -0.56423,-1.35416 -1.24132,-2.31467 -2.03125,-2.8789 -0.78993,-0.56424 -1.69337,-0.84571 -2.70898,-0.84571 h -51.19922 v -58.90625 h 63.81808 17.41211 c 1.01563,0 1.9171,-0.33853 2.70703,-1.01562 0.78993,-0.67709 1.46701,-1.69271 2.03125,-3.04688 0.67708,-1.35416 1.12977,-3.15906 1.35547,-5.41601 0.33854,-2.36979 0.50781,-5.2474 0.50781,-8.63281 0,-3.38542 -0.16927,-6.26303 -0.50781,-8.63282 -0.2257,-2.36978 -0.67839,-4.23176 -1.35547,-5.58593 -0.56424,-1.46702 -1.24132,-2.48265 -2.03125,-3.04688 -0.78993,-0.67709 -1.6914,-1.01562 -2.70703,-1.01562 h -17.41211 -95.30246 z"
         transform="translate(38.05566,93.425347)" />
      <g
         id="g831"
         style="display:inline;fill:#00d400"
         transform="matrix(0.62979353,0,0,0.78220543,79.470038,70.998409)">
        <text
           xml:space="preserve"
           style="font-style:normal;font-weight:normal;font-size:10.5833px;line-height:1.25;font-family:sans-serif;letter-spacing:0px;word-spacing:0px;fill:#00d400;fill-opacity:1;stroke:none;stroke-width:0.264583"
           x="174.625"
           y="196.45831"
           id="text863" />
        <path
           style="font-size:400px;line-height:1.25;-inkscape-font-specification:'sans-serif, Normal';text-align:center;letter-spacing:0px;word-spacing:0px;text-anchor:middle;white-space:pre;fill:#00d400;stroke-width:1.36158"
           d="m 282.19781,431.11325 c -8.98409,-21.61107 -20.8688,-42.31532 -34.2666,-28.99495 -13.82467,13.74478 22.86441,93.66481 41.4113,87.30118 41.67576,-14.29938 119.49046,-150.59651 110.18112,-151.82513 -28.13604,-3.7133 -71.96193,27.28628 -117.32582,93.5189 z"
           id="text1-3"
           aria-label="T" />
      </g>
    </g>
  </g>
</svg>
