<?xml version="1.0" encoding="UTF-8" standalone="no"?>
<svg
   version="1.1"
   width="512px"
   height="512px"
   style="shape-rendering:geometricPrecision; text-rendering:geometricPrecision; image-rendering:optimizeQuality; fill-rule:evenodd; clip-rule:evenodd"
   id="svg3"
   xmlns="http://www.w3.org/2000/svg"
   xmlns:svg="http://www.w3.org/2000/svg">
  <defs
     id="defs3" />
  <g
     id="layer1">
    <rect
       style="fill:#999999;stroke:none;stroke-width:10;stroke-linecap:round;stroke-linejoin:round;stroke-dasharray:none;stroke-opacity:1;paint-order:markers fill stroke;fill-opacity:1"
       id="rect3"
       width="512"
       height="512"
       x="0"
       y="0"
       ry="87.0364" />
  </g>
  <g
     id="layer1-7"
     style="clip-rule:evenodd;fill:#ffffff;fill-rule:evenodd;image-rendering:optimizeQuality;shape-rendering:geometricPrecision;text-rendering:geometricPrecision"
     transform="matrix(0.85048537,0,0,0.85048537,38.275745,38.275745)">
    <rect
       style="fill:#ffffff;stroke:none;stroke-width:10;stroke-linecap:round;stroke-linejoin:round;stroke-dasharray:none;stroke-opacity:1;paint-order:markers fill stroke"
       id="rect3-5"
       width="512"
       height="512"
       x="0"
       y="0"
       ry="87.0364" />
  </g>
  <g
     id="layer2"
     transform="matrix(0.8594478,0,0,0.8594478,35.908947,35.906712)"
     style="fill:#999999;fill-opacity:1">
    <g
       id="g1"
       style="clip-rule:evenodd;fill:#999999;fill-rule:evenodd;image-rendering:optimizeQuality;shape-rendering:geometricPrecision;text-rendering:geometricPrecision;fill-opacity:1">
      <path
         style="opacity:0.994;fill:#999999;fill-opacity:1"
         fill="#000000"
         d="m 90.5,23.5 c 110.001,-0.1667 220.001,0 330,0.5 36.833,7.5 59,29.6667 66.5,66.5 0.833,75.336 0.667,150.669 -0.5,226 -33.499,-21.586 -67.499,-42.419 -102,-62.5 -26.578,-9.692 -51.578,-6.692 -75,9 -15.226,12.231 -30.726,24.064 -46.5,35.5 -34.237,-20.535 -68.071,-41.701 -101.5,-63.5 -18.014,-9.966 -36.014,-9.966 -54,0 C 79.6667,256.833 51.8333,278.667 24,300.5 23.016,228.797 23.3494,157.131 25,85.5 31.8247,59.0152 47.658,40.1818 72.5,29 c 6.0308,-2.1676 12.0308,-4.001 18,-5.5 z m 268,94 c 19.351,-0.145 31.185,9.189 35.5,28 -0.67,24.336 -13.17,35.836 -37.5,34.5 -18.582,-5.657 -26.748,-18.157 -24.5,-37.5 3.904,-13.742 12.738,-22.075 26.5,-25 z"
         id="path1" />
    </g>
    <g
       id="g2"
       style="clip-rule:evenodd;fill:#999999;fill-rule:evenodd;image-rendering:optimizeQuality;shape-rendering:geometricPrecision;text-rendering:geometricPrecision;fill-opacity:1">
      <path
         style="opacity:0.993;fill:#999999;fill-opacity:1"
         fill="#000000"
         d="m 128.5,258.5 c 4.014,-0.166 8.014,10e-4 12,0.5 108.502,67.75 216.835,135.75 325,204 -12.271,12.971 -27.271,20.971 -45,24 -110,0.667 -220,0.667 -330,0 -36.8333,-7.5 -59,-29.667 -66.5,-66.5 -0.8332,-27.339 -0.6665,-54.673 0.5,-82 34.4461,-27.133 69.1127,-53.799 104,-80 z"
         id="path2" />
    </g>
    <g
       id="g3"
       style="clip-rule:evenodd;fill:#999999;fill-rule:evenodd;image-rendering:optimizeQuality;shape-rendering:geometricPrecision;text-rendering:geometricPrecision;fill-opacity:1">
      <path
         style="opacity:0.979;fill:#999999;fill-opacity:1"
         fill="#000000"
         d="m 347.5,279.5 c 10.895,-1.176 21.228,0.657 31,5.5 36.251,22.708 72.418,45.542 108.5,68.5 0.667,22.333 0.667,44.667 0,67 -0.806,5.394 -2.306,10.56 -4.5,15.5 -2.098,-0.032 -4.098,-0.699 -6,-2 C 415.253,394.792 353.753,355.958 292,317.5 c -0.617,-0.949 -0.451,-1.782 0.5,-2.5 11.667,-9 23.333,-18 35,-27 6.23,-4.124 12.897,-6.957 20,-8.5 z"
         id="path3" />
    </g>
  </g>
</svg>
