<?xml version="1.0" encoding="UTF-8" standalone="no"?>
<svg
   version="1.1"
   width="512px"
   height="512px"
   style="shape-rendering:geometricPrecision; text-rendering:geometricPrecision; image-rendering:optimizeQuality; fill-rule:evenodd; clip-rule:evenodd"
   id="svg3"
   xmlns="http://www.w3.org/2000/svg"
   xmlns:svg="http://www.w3.org/2000/svg">
  <defs
     id="defs3" />
  <g
     id="layer1">
    <rect
       style="fill:#44aa00;stroke:none;stroke-width:10;stroke-linecap:round;stroke-linejoin:round;stroke-dasharray:none;stroke-opacity:1;paint-order:markers fill stroke"
       id="rect3"
       width="512"
       height="512"
       x="0"
       y="0"
       ry="87.0364" />
  </g>
  <g
     id="layer1-7"
     style="clip-rule:evenodd;fill:#ffffff;fill-rule:evenodd;image-rendering:optimizeQuality;shape-rendering:geometricPrecision;text-rendering:geometricPrecision"
     transform="matrix(0.85048537,0,0,0.85048537,38.275745,38.275745)">
    <rect
       style="fill:#ffffff;stroke:none;stroke-width:10;stroke-linecap:round;stroke-linejoin:round;stroke-dasharray:none;stroke-opacity:1;paint-order:markers fill stroke"
       id="rect3-5"
       width="512"
       height="512"
       x="0"
       y="0"
       ry="87.0364" />
  </g>
  <g
     id="layer1-7-6"
     style="clip-rule:evenodd;fill:#44aa00;fill-rule:evenodd;image-rendering:optimizeQuality;shape-rendering:geometricPrecision;text-rendering:geometricPrecision;fill-opacity:1"
     transform="matrix(0.77813268,0,0,0.77813268,56.798035,56.798035)">
    <rect
       style="fill:#44aa00;stroke:none;stroke-width:10;stroke-linecap:round;stroke-linejoin:round;stroke-dasharray:none;stroke-opacity:1;paint-order:markers fill stroke;fill-opacity:1"
       id="rect3-5-2"
       width="512"
       height="512"
       x="0"
       y="0"
       ry="87.0364" />
  </g>
  <path
     style="font-size:400px;line-height:1.25;font-family:C059;-inkscape-font-specification:C059;text-align:center;letter-spacing:0px;word-spacing:0px;text-anchor:middle;white-space:pre;clip-rule:evenodd;fill:#ffffff;fill-opacity:1;fill-rule:evenodd;image-rendering:optimizeQuality;shape-rendering:geometricPrecision;text-rendering:geometricPrecision"
     d="M 375.8,111.6 H 136.2 l -6,111.20001 h 17.2 c 2.8,-20 6,-35.20001 10.8,-48.00001 10.4,-29.6 29.6,-44.4 56.8,-44.4 13.2,0 18.8,4.4 18.8,14.40001 V 351.2 c 0,20.4 0,21.2 -2.4,24.80001 -3.2,4 -10.8,5.59999 -33.6,5.59999 h -10.4 v 18.8 h 137.2 v -18.8 h -10.4 c -22.4,0 -30,-1.59999 -33.2,-5.59999 C 278.6,372.4 278.6,371.6 278.6,351.2 V 144.8 c 0,-10.00001 5.6,-14.40001 18.8,-14.40001 24.4,0 44,13.60001 54,37.60001 6,14.79999 10,31.99999 13.2,54.8 h 17.2 z"
     id="text3"
     aria-label="T" />
</svg>
